# xmcd CD database file
#
# Track frame offsets:
#	150
#	9235
#	23514
#	31442
#	43814
#	53203
#	62920
#	72827
#
# Disc length: 1146 seconds
#
# Revision: 0
# Processed by: cddbd v1.5.2PL0 Copyright (c) Steve Scherf et al.
# Submitted via: CDex 1.51
#
DISCID=62047808
DTITLE=Defect Defect - 2009 Tour CDR
DYEAR=2009
DGENRE=Merengue
TTITLE0=Stolen Ground
TTITLE1=Time to Die
TTITLE2=Ex Punk
TTITLE3=Osasco
TTITLE4=Your Move
TTITLE5=Repeating Patterns
TTITLE6=We've Already Lost
TTITLE7=Post Apocolypse
EXTD=YEAR: 2009
EXTT0=
EXTT1=
EXTT2=
EXTT3=
EXTT4=
EXTT5=
EXTT6=
EXTT7=
PLAYORDER=
